<svg width="1000" height="330" viewBox="0 0 1000 330" fill="none" xmlns="http://www.w3.org/2000/svg">
<path d="M309.896 248.807V234.022H269.122V248.945H251.915V304.656H147.102V275.747C149.098 275.596 151.094 275.444 153.406 275.444V225.116H188.95V247.43C193.08 245.118 196.645 243.301 200.183 241.428C209.268 236.5 218.34 231.572 227.425 226.809C228.586 226.341 229.552 225.491 230.165 224.4C230.778 223.309 231.001 222.042 230.798 220.807C230.495 214.185 230.798 207.578 230.798 200.805H268.805V215.727H309.58V200.585H347.133V190.948H309.731V175.572H268.971V190.714H230.963V142.396H268.805V157.332H309.58V142.189H347.133V132.553H309.731V117.245H268.971V132.154H230.798C230.798 124.761 230.963 117.534 230.646 110.458C230.599 109.659 230.366 108.881 229.967 108.186C229.568 107.491 229.014 106.898 228.348 106.453C215.876 99.9826 203.266 93.5263 190.643 87.1802C190.09 87.0218 189.523 86.9158 188.95 86.8635V112.634H153.255V57.0877C150.942 56.9362 148.946 56.7848 146.634 56.7848V28.6195H251.116V83.5459H268.502V99.1153H309.277V83.8626H346.816V74.2263H309.428V58.9323H268.805V73.8547H261.275V18.6117H146.482V0H136.846V18.3088H125.407V0H115.771V18.6117H4.92817C3.28371 18.5842 1.63892 18.6393 0 18.7768V28.4131C30.7804 28.4131 61.3956 28.4131 92.0108 28.2616H115.55V56.7848C113.706 56.7848 111.71 56.9362 109.246 57.0877V102.984H76.7858V57.0877H42.7704V70.6334H0.151424V80.2696H42.1647V93.3473H0.151424V102.984H42.1647V115.29H0.151424V124.927H42.1647V137.247H0.151424V146.883H42.1647V154.262H76.7858L77.7769 115.29H109.246L108.282 219.733H76.6206L76.7858 180.183H42.3712V186.64H34.7725C23.3881 186.488 11.8524 186.337 0.357912 186.337V196.95C7.90159 196.799 15.5003 196.648 22.9752 196.648H42.3162V209.725H30.6152C20.6212 209.725 10.462 209.422 0.33038 209.422V220.036C7.87405 219.885 15.4728 219.733 22.9476 219.733H42.3162V231.889H30.6152C20.6212 231.889 10.462 231.572 0.33038 231.572V242.199C7.87405 242.034 15.4728 241.883 22.9476 241.883H42.3162V254.038H30.6152C20.6212 254.038 10.462 253.735 0.33038 253.735V264.307C7.87405 264.156 15.5692 264.005 23.1128 264.005H42.4676V276.311H76.6206V231.889H109.246V276.504C111.558 276.656 113.554 276.821 115.867 276.821V305.895H0.468038V315.531H116.17V329.379H125.806V315.847H137.245V329.379H146.881V315.586H261.551V260.04H268.943V274.962H309.731V259.737H316.807C326.966 259.889 337.111 260.04 347.271 260.04V249.426C334.826 248.807 322.506 248.807 309.896 248.807ZM153.558 122.641H188.798V214.653H153.558V122.641ZM125.861 28.3167H136.488V56.3168H125.861V28.3167ZM136.64 304.669H126.012V275.898H136.64V304.669Z" fill="#404040"/>
<path d="M424.224 190.617H392.218V32.4464H498.698V61.9881H424.224V95.3705H497.183V124.954H424.224V190.617Z" fill="#404040"/>
<path d="M565.006 190.617H533.015V32.4464H603.482C619.327 32.4464 631.633 37.3608 640.567 47.0658C649.502 56.7708 653.948 68.9123 653.948 83.3666C653.948 97.8208 649.488 109.811 640.416 119.681C631.344 129.551 618.996 134.301 603.331 134.301H565.006V190.617ZM599.173 104.759C605.017 104.956 610.705 102.855 615.018 98.9083C619.148 95.0676 621.171 89.8366 621.171 83.3666C621.171 76.8966 619.175 71.6793 615.018 67.8386C610.705 63.8915 605.017 61.7913 599.173 61.9881H565.172V104.663H599.173V104.759Z" fill="#404040"/>
<path d="M758.735 193.7C736.117 193.7 717.189 186.157 701.798 170.932C686.408 155.707 678.726 135.994 678.726 111.738C678.726 87.4826 686.422 67.577 701.798 52.5446C717.175 37.5122 736.268 29.9685 758.735 29.9685C786.129 29.9685 806.916 41.8072 821.053 65.1955L794.43 80.4482C790.773 74.4027 785.704 69.3342 779.659 65.6773C773.371 61.8038 766.12 59.7765 758.735 59.8268C752.371 59.6732 746.05 60.9006 740.206 63.4244C734.362 65.9482 729.135 69.7084 724.884 74.4462C715.963 84.3026 711.503 96.6094 711.503 111.683C711.503 126.757 715.963 139.077 724.884 148.92C733.804 158.763 745.037 163.498 758.735 163.498C765.006 163.488 771.219 162.287 777.043 159.96C782.158 158.1 786.842 155.22 790.809 151.494V132.607H751.039V103.217H822.733V163.787C805.828 183.693 784.436 193.7 758.735 193.7Z" fill="#404040"/>
<path d="M999.085 190.617H962.454L953.231 163.842H888.807L879.171 190.617H842.554L900.756 32.5978H940.925L999.085 190.617ZM944.462 134.177L920.909 66.1729L897.369 134.177H944.462Z" fill="#404040"/>
<path d="M429.921 303.098C414.682 303.098 402.527 298.335 393.606 288.796L403.6 274.176C406.998 278.085 411.213 281.199 415.946 283.299C420.68 285.4 425.817 286.435 430.995 286.332C435.758 286.332 439.461 285.409 442.077 283.399C443.264 282.63 444.248 281.585 444.943 280.353C445.638 279.12 446.025 277.738 446.069 276.324C446.037 275.067 445.681 273.84 445.034 272.761C444.388 271.683 443.473 270.79 442.379 270.17C439.564 268.394 436.424 267.191 433.142 266.633C429.088 265.822 425.081 264.793 421.138 263.549C417.052 262.255 413.048 260.715 409.148 258.937C405.364 257.144 402.162 254.319 399.911 250.788C397.346 246.747 396.06 242.026 396.222 237.242C396.159 233.528 396.927 229.846 398.471 226.466C400.014 223.086 402.294 220.094 405.142 217.709C411.144 212.478 418.991 209.848 428.834 209.848C442.531 209.848 453.613 213.978 462.382 222.472L452.222 236.623C448.915 233.387 444.989 230.851 440.68 229.167C436.37 227.483 431.765 226.686 427.14 226.822C423.3 226.822 420.257 227.593 418.068 229.286C417.034 230.046 416.2 231.045 415.637 232.199C415.073 233.352 414.798 234.624 414.833 235.907C414.833 238.055 416.072 239.899 418.523 241.414C421.38 243.074 424.506 244.22 427.76 244.8C431.765 245.667 435.722 246.747 439.612 248.035C443.677 249.311 447.635 250.904 451.451 252.798C455.272 254.588 458.483 257.46 460.688 261.057C463.236 265.101 464.521 269.812 464.378 274.589C464.378 283.207 461.459 290.282 455.609 295.513C449.675 300.483 441.14 303.098 429.921 303.098Z" fill="#404040"/>
<path d="M524.549 301.406H506.24V264.486L473.202 211.087H494.14L515.463 247.471L536.553 211.156H557.477L524.549 264.554V301.406Z" fill="#404040"/>
<path d="M600.247 303.098C585.022 303.098 572.867 298.335 563.933 288.796L573.941 274.176C577.336 278.084 581.548 281.199 586.279 283.299C591.01 285.399 596.145 286.435 601.321 286.332C606.097 286.332 609.786 285.409 612.333 283.399C613.522 282.631 614.508 281.586 615.206 280.354C615.903 279.122 616.292 277.739 616.339 276.324C616.305 275.067 615.947 273.841 615.301 272.763C614.655 271.685 613.742 270.792 612.65 270.17C609.834 268.394 606.695 267.191 603.413 266.633C599.359 265.822 595.352 264.793 591.409 263.549C587.319 262.255 583.31 260.715 579.406 258.937C575.625 257.144 572.428 254.319 570.183 250.788C567.613 246.749 566.322 242.028 566.48 237.242C566.419 233.526 567.189 229.844 568.735 226.464C570.281 223.084 572.563 220.093 575.414 217.709C581.415 212.478 589.262 209.848 599.104 209.848C612.801 209.848 623.882 213.978 632.651 222.472L622.492 236.623C619.193 233.396 615.279 230.865 610.982 229.181C606.685 227.497 602.093 226.695 597.48 226.822C593.639 226.822 590.597 227.593 588.395 229.286C587.364 230.048 586.533 231.049 585.972 232.201C585.411 233.354 585.137 234.626 585.173 235.907C585.173 238.055 586.403 239.89 588.863 241.414C591.719 243.076 594.846 244.222 598.099 244.8C602.1 245.668 606.052 246.747 609.938 248.035C614.007 249.311 617.969 250.904 621.79 252.798C625.608 254.593 628.818 257.463 631.027 261.057C633.575 265.101 634.859 269.812 634.716 274.589C634.716 283.207 631.798 290.282 625.947 295.513C619.945 300.483 611.48 303.098 600.247 303.098Z" fill="#404040"/>
<path d="M690.578 301.406H672.105V228.006H647.024V211.087H715.646V228.006H690.578V301.406Z" fill="#404040"/>
<path d="M795.048 301.406H734.119V211.087H795.048V228.006H752.373V247.085H794.071V263.99H752.428V284.46H795.104L795.048 301.406Z" fill="#404040"/>
<path d="M909.373 301.406H890.913V238.165L866.603 301.406H858.591L834.282 238.165V301.406H815.973V211.087H841.674L862.652 265.711L883.576 211.087H909.428V301.406H909.373Z" fill="#404040"/>
<path d="M963.844 303.098C948.606 303.098 936.451 298.335 927.531 288.796L937.538 274.176C940.933 278.084 945.145 281.199 949.876 283.299C954.608 285.399 959.742 286.435 964.918 286.332C969.695 286.332 973.384 285.409 975.999 283.399C977.189 282.631 978.174 281.586 978.872 280.354C979.569 279.122 979.958 277.739 980.005 276.324C979.971 275.066 979.612 273.838 978.963 272.76C978.314 271.682 977.397 270.79 976.302 270.17C973.493 268.391 970.358 267.189 967.079 266.633C963.025 265.824 959.018 264.794 955.076 263.549C950.985 262.255 946.977 260.715 943.072 258.937C939.29 257.14 936.09 254.316 933.836 250.788C931.27 246.747 929.985 242.026 930.146 237.242C930.084 233.528 930.852 229.846 932.395 226.466C933.939 223.086 936.218 220.094 939.066 217.709C945.068 212.478 952.914 209.848 962.77 209.848C976.467 209.848 987.548 213.978 996.303 222.472L986.158 236.623C982.851 233.387 978.926 230.851 974.616 229.167C970.307 227.483 965.702 226.686 961.077 226.822C957.223 226.822 954.195 227.593 951.992 229.286C950.962 230.048 950.13 231.049 949.57 232.201C949.009 233.354 948.735 234.626 948.771 235.907C948.771 238.055 950.001 239.89 952.46 241.414C955.312 243.074 958.434 244.22 961.683 244.8C965.689 245.666 969.645 246.746 973.535 248.035C977.604 249.311 981.567 250.904 985.387 252.798C989.205 254.593 992.415 257.463 994.624 261.057C997.165 265.104 998.449 269.813 998.313 274.589C998.313 283.207 995.381 290.282 989.544 295.513C983.543 300.483 974.925 303.098 963.844 303.098Z" fill="#404040"/>
</svg>
